<?xml version="1.0" standalone="no"?><!DOCTYPE svg PUBLIC "-//W3C//DTD SVG 1.1//EN" "http://www.w3.org/Graphics/SVG/1.1/DTD/svg11.dtd"><svg t="1734316584507" class="icon" viewBox="0 0 1024 1024" version="1.1" xmlns="http://www.w3.org/2000/svg" p-id="1487" xmlns:xlink="http://www.w3.org/1999/xlink" width="200" height="200"><path d="M769.3312 708.9664l182.7328 182.6816-60.416 60.416-182.6816-182.784a382.3104 382.3104 0 0 1-239.616 84.0192c-211.968 0-384-172.032-384-384 0-211.968 172.032-384 384-384 211.968 0 384 172.032 384 384a382.3104 382.3104 0 0 1-84.0192 239.616z m-85.6064-31.6416A297.6768 297.6768 0 0 0 768 469.2992a298.5984 298.5984 0 0 0-298.6496-298.6496 298.5472 298.5472 0 0 0-298.7008 298.6496 298.5984 298.5984 0 0 0 298.7008 298.6496 297.6768 297.6768 0 0 0 207.9744-84.224l6.4-6.4z m-257.024-250.6752v-128H512v128h128v85.2992H512v128H426.6496V512h-128V426.6496h128z" p-id="1488"></path></svg>